<svg xmlns="http://www.w3.org/2000/svg" xmlns:xlink="http://www.w3.org/1999/xlink" width="56" zoomAndPan="magnify" viewBox="0 0 42 30.000001" height="40" preserveAspectRatio="xMidYMid meet" version="1.0"><defs><clipPath id="7298532acc"><path d="M 3.582031 4.933594 L 19.546875 4.933594 L 19.546875 7.113281 L 3.582031 7.113281 Z M 3.582031 4.933594 " clip-rule="nonzero"/></clipPath><clipPath id="afa319f4a0"><path d="M 21 4.933594 L 36.96875 4.933594 L 36.96875 7.113281 L 21 7.113281 Z M 21 4.933594 " clip-rule="nonzero"/></clipPath><clipPath id="39ab81d2e5"><path d="M 21 18.808594 L 36.96875 18.808594 L 36.96875 20.984375 L 21 20.984375 Z M 21 18.808594 " clip-rule="nonzero"/></clipPath><clipPath id="422f079012"><path d="M 21 7 L 37 7 L 37 19 L 21 19 Z M 21 7 " clip-rule="nonzero"/></clipPath><clipPath id="3a876a5973"><path d="M 21.050781 17.195312 L 35.84375 6.691406 L 37.105469 8.464844 L 22.3125 18.972656 Z M 21.050781 17.195312 " clip-rule="nonzero"/></clipPath><clipPath id="f11b6a9ab7"><path d="M 21.050781 17.195312 L 35.84375 6.691406 L 37.105469 8.464844 L 22.3125 18.972656 Z M 21.050781 17.195312 " clip-rule="nonzero"/></clipPath><clipPath id="56c87c5aba"><path d="M 3.582031 18.808594 L 19.546875 18.808594 L 19.546875 20.984375 L 3.582031 20.984375 Z M 3.582031 18.808594 " clip-rule="nonzero"/></clipPath><clipPath id="a9c990d50d"><path d="M 3.582031 11.871094 L 19.546875 11.871094 L 19.546875 14.050781 L 3.582031 14.050781 Z M 3.582031 11.871094 " clip-rule="nonzero"/></clipPath></defs><g clip-path="url(#7298532acc)"><path fill="#ffffff" d="M 18.695312 7.203125 L 4.714844 7.203125 C 4.089844 7.203125 3.582031 6.695312 3.582031 6.070312 C 3.582031 5.441406 4.089844 4.933594 4.714844 4.933594 L 18.695312 4.933594 C 19.324219 4.933594 19.832031 5.441406 19.832031 6.070312 C 19.832031 6.695312 19.324219 7.203125 18.695312 7.203125 Z M 18.695312 7.203125 " fill-opacity="1" fill-rule="nonzero"/></g><g clip-path="url(#afa319f4a0)"><path fill="#ffffff" d="M 36.117188 7.203125 L 22.136719 7.203125 C 21.507812 7.203125 21 6.695312 21 6.070312 C 21 5.441406 21.507812 4.933594 22.136719 4.933594 L 36.117188 4.933594 C 36.742188 4.933594 37.25 5.441406 37.25 6.070312 C 37.25 6.695312 36.742188 7.203125 36.117188 7.203125 Z M 36.117188 7.203125 " fill-opacity="1" fill-rule="nonzero"/></g><g clip-path="url(#39ab81d2e5)"><path fill="#ffffff" d="M 36.117188 21.074219 L 22.136719 21.074219 C 21.507812 21.074219 21 20.570312 21 19.941406 C 21 19.316406 21.507812 18.808594 22.136719 18.808594 L 36.117188 18.808594 C 36.742188 18.808594 37.25 19.316406 37.25 19.941406 C 37.25 20.570312 36.742188 21.074219 36.117188 21.074219 Z M 36.117188 21.074219 " fill-opacity="1" fill-rule="nonzero"/></g><g clip-path="url(#422f079012)"><g clip-path="url(#3a876a5973)"><g clip-path="url(#f11b6a9ab7)"><path fill="#ffffff" d="M 36.175781 9.542969 L 23.53125 18.519531 C 22.964844 18.921875 22.183594 18.789062 21.777344 18.222656 C 21.375 17.65625 21.507812 16.871094 22.078125 16.46875 L 34.71875 7.492188 C 35.285156 7.089844 36.070312 7.222656 36.472656 7.789062 C 36.875 8.355469 36.742188 9.140625 36.175781 9.542969 Z M 36.175781 9.542969 " fill-opacity="1" fill-rule="nonzero"/></g></g></g><g clip-path="url(#56c87c5aba)"><path fill="#ffffff" d="M 18.695312 21.074219 L 4.714844 21.074219 C 4.089844 21.074219 3.582031 20.570312 3.582031 19.941406 C 3.582031 19.316406 4.089844 18.808594 4.714844 18.808594 L 18.695312 18.808594 C 19.324219 18.808594 19.832031 19.316406 19.832031 19.941406 C 19.832031 20.570312 19.324219 21.074219 18.695312 21.074219 Z M 18.695312 21.074219 " fill-opacity="1" fill-rule="nonzero"/></g><g clip-path="url(#a9c990d50d)"><path fill="#ffffff" d="M 18.695312 14.140625 L 4.714844 14.140625 C 4.089844 14.140625 3.582031 13.632812 3.582031 13.003906 C 3.582031 12.378906 4.089844 11.871094 4.714844 11.871094 L 18.695312 11.871094 C 19.324219 11.871094 19.832031 12.378906 19.832031 13.003906 C 19.832031 13.632812 19.324219 14.140625 18.695312 14.140625 Z M 18.695312 14.140625 " fill-opacity="1" fill-rule="nonzero"/></g></svg>