<svg xmlns="http://www.w3.org/2000/svg" xmlns:xlink="http://www.w3.org/1999/xlink" width="56" zoomAndPan="magnify" viewBox="0 0 42 30.000001" height="40" preserveAspectRatio="xMidYMid meet" version="1.0"><defs><clipPath id="eb27ed1b7b"><path d="M 11.683594 2.175781 L 31.214844 2.175781 L 31.214844 6.675781 L 11.683594 6.675781 Z M 11.683594 2.175781 " clip-rule="nonzero"/></clipPath><clipPath id="ffd1990523"><path d="M 13.933594 2.175781 L 28.953125 2.175781 C 29.550781 2.175781 30.121094 2.414062 30.546875 2.835938 C 30.96875 3.257812 31.203125 3.832031 31.203125 4.425781 C 31.203125 5.023438 30.96875 5.597656 30.546875 6.019531 C 30.121094 6.441406 29.550781 6.675781 28.953125 6.675781 L 13.933594 6.675781 C 13.339844 6.675781 12.765625 6.441406 12.34375 6.019531 C 11.921875 5.597656 11.683594 5.023438 11.683594 4.425781 C 11.683594 3.832031 11.921875 3.257812 12.34375 2.835938 C 12.765625 2.414062 13.339844 2.175781 13.933594 2.175781 Z M 13.933594 2.175781 " clip-rule="nonzero"/></clipPath><clipPath id="c5500c2740"><path d="M 0.683594 0.175781 L 20.214844 0.175781 L 20.214844 4.675781 L 0.683594 4.675781 Z M 0.683594 0.175781 " clip-rule="nonzero"/></clipPath><clipPath id="ccd8f01838"><path d="M 2.933594 0.175781 L 17.953125 0.175781 C 18.550781 0.175781 19.121094 0.414062 19.546875 0.835938 C 19.96875 1.257812 20.203125 1.832031 20.203125 2.425781 C 20.203125 3.023438 19.96875 3.597656 19.546875 4.019531 C 19.121094 4.441406 18.550781 4.675781 17.953125 4.675781 L 2.933594 4.675781 C 2.339844 4.675781 1.765625 4.441406 1.34375 4.019531 C 0.921875 3.597656 0.683594 3.023438 0.683594 2.425781 C 0.683594 1.832031 0.921875 1.257812 1.34375 0.835938 C 1.765625 0.414062 2.339844 0.175781 2.933594 0.175781 Z M 2.933594 0.175781 " clip-rule="nonzero"/></clipPath><clipPath id="64241b9b32"><rect x="0" width="21" y="0" height="5"/></clipPath><clipPath id="9179ea9b32"><path d="M 18 3 L 32 3 L 32 15 L 18 15 Z M 18 3 " clip-rule="nonzero"/></clipPath><clipPath id="ef5870b5b5"><path d="M 17.597656 11.953125 L 29.3125 2.910156 L 32.0625 6.472656 L 20.34375 15.515625 Z M 17.597656 11.953125 " clip-rule="nonzero"/></clipPath><clipPath id="e6960df5a5"><path d="M 19.375 10.578125 L 27.527344 4.289062 C 28 3.921875 28.597656 3.761719 29.191406 3.835938 C 29.78125 3.914062 30.320312 4.222656 30.683594 4.695312 C 31.050781 5.167969 31.210938 5.765625 31.132812 6.355469 C 31.058594 6.949219 30.75 7.484375 30.277344 7.851562 L 22.125 14.140625 C 21.652344 14.503906 21.054688 14.667969 20.464844 14.589844 C 19.871094 14.515625 19.335938 14.207031 18.96875 13.734375 C 18.605469 13.261719 18.445312 12.664062 18.519531 12.074219 C 18.597656 11.480469 18.90625 10.941406 19.375 10.578125 Z M 19.375 10.578125 " clip-rule="nonzero"/></clipPath><clipPath id="058864165c"><path d="M 0.328125 0.714844 L 13.335938 0.714844 L 13.335938 11.863281 L 0.328125 11.863281 Z M 0.328125 0.714844 " clip-rule="nonzero"/></clipPath><clipPath id="c7d9ab1f0e"><path d="M -0.402344 8.953125 L 11.3125 -0.0898438 L 14.0625 3.472656 L 2.34375 12.515625 Z M -0.402344 8.953125 " clip-rule="nonzero"/></clipPath><clipPath id="7dc6a5095d"><path d="M 1.375 7.578125 L 9.527344 1.289062 C 10 0.921875 10.597656 0.761719 11.191406 0.835938 C 11.78125 0.914062 12.320312 1.222656 12.683594 1.695312 C 13.050781 2.167969 13.210938 2.765625 13.132812 3.355469 C 13.058594 3.949219 12.75 4.484375 12.277344 4.851562 L 4.125 11.140625 C 3.652344 11.503906 3.054688 11.667969 2.464844 11.589844 C 1.871094 11.515625 1.335938 11.207031 0.96875 10.734375 C 0.605469 10.261719 0.445312 9.664062 0.519531 9.074219 C 0.597656 8.480469 0.90625 7.941406 1.375 7.578125 Z M 1.375 7.578125 " clip-rule="nonzero"/></clipPath><clipPath id="1483140d36"><rect x="0" width="14" y="0" height="12"/></clipPath><clipPath id="540f563d86"><path d="M 27.601562 2.167969 L 31.230469 2.167969 L 31.230469 16.910156 L 27.601562 16.910156 Z M 27.601562 2.167969 " clip-rule="nonzero"/></clipPath><clipPath id="5ee3d82226"><path d="M 27.601562 15.09375 L 27.601562 3.992188 C 27.601562 3.507812 27.792969 3.046875 28.132812 2.707031 C 28.472656 2.367188 28.933594 2.175781 29.414062 2.175781 C 29.898438 2.175781 30.359375 2.367188 30.699219 2.707031 C 31.039062 3.046875 31.230469 3.507812 31.230469 3.992188 L 31.230469 15.09375 C 31.230469 15.578125 31.039062 16.039062 30.699219 16.378906 C 30.359375 16.71875 29.898438 16.910156 29.414062 16.910156 C 28.933594 16.910156 28.472656 16.71875 28.132812 16.378906 C 27.792969 16.039062 27.601562 15.578125 27.601562 15.09375 Z M 27.601562 15.09375 " clip-rule="nonzero"/></clipPath><clipPath id="444550e648"><path d="M 0.601562 0.167969 L 4.230469 0.167969 L 4.230469 14.910156 L 0.601562 14.910156 Z M 0.601562 0.167969 " clip-rule="nonzero"/></clipPath><clipPath id="03c85303bb"><path d="M 0.601562 13.09375 L 0.601562 1.992188 C 0.601562 1.507812 0.792969 1.046875 1.132812 0.707031 C 1.472656 0.367188 1.933594 0.175781 2.414062 0.175781 C 2.898438 0.175781 3.359375 0.367188 3.699219 0.707031 C 4.039062 1.046875 4.230469 1.507812 4.230469 1.992188 L 4.230469 13.09375 C 4.230469 13.578125 4.039062 14.039062 3.699219 14.378906 C 3.359375 14.71875 2.898438 14.910156 2.414062 14.910156 C 1.933594 14.910156 1.472656 14.71875 1.132812 14.378906 C 0.792969 14.039062 0.601562 13.578125 0.601562 13.09375 Z M 0.601562 13.09375 " clip-rule="nonzero"/></clipPath><clipPath id="9fc1d46cfe"><rect x="0" width="5" y="0" height="15"/></clipPath><clipPath id="0f6bcf613c"><path d="M 12.445312 23.441406 L 30.304688 23.441406 L 30.304688 27.941406 L 12.445312 27.941406 Z M 12.445312 23.441406 " clip-rule="nonzero"/></clipPath><clipPath id="8c44099070"><path d="M 28.054688 27.941406 L 14.707031 27.941406 C 14.109375 27.941406 13.535156 27.703125 13.113281 27.28125 C 12.691406 26.859375 12.457031 26.289062 12.457031 25.691406 C 12.457031 25.09375 12.691406 24.523438 13.113281 24.101562 C 13.535156 23.679688 14.109375 23.441406 14.707031 23.441406 L 28.054688 23.441406 C 28.652344 23.441406 29.226562 23.679688 29.648438 24.101562 C 30.070312 24.523438 30.304688 25.09375 30.304688 25.691406 C 30.304688 26.289062 30.070312 26.859375 29.648438 27.28125 C 29.226562 27.703125 28.652344 27.941406 28.054688 27.941406 Z M 28.054688 27.941406 " clip-rule="nonzero"/></clipPath><clipPath id="161c6020e0"><path d="M 0.445312 0.441406 L 18.304688 0.441406 L 18.304688 4.941406 L 0.445312 4.941406 Z M 0.445312 0.441406 " clip-rule="nonzero"/></clipPath><clipPath id="0a87fbfb35"><path d="M 16.054688 4.941406 L 2.707031 4.941406 C 2.109375 4.941406 1.535156 4.703125 1.113281 4.28125 C 0.691406 3.859375 0.457031 3.289062 0.457031 2.691406 C 0.457031 2.09375 0.691406 1.523438 1.113281 1.101562 C 1.535156 0.679688 2.109375 0.441406 2.707031 0.441406 L 16.054688 0.441406 C 16.652344 0.441406 17.226562 0.679688 17.648438 1.101562 C 18.070312 1.523438 18.304688 2.09375 18.304688 2.691406 C 18.304688 3.289062 18.070312 3.859375 17.648438 4.28125 C 17.226562 4.703125 16.652344 4.941406 16.054688 4.941406 Z M 16.054688 4.941406 " clip-rule="nonzero"/></clipPath><clipPath id="504da14fa2"><rect x="0" width="19" y="0" height="5"/></clipPath><clipPath id="7fd569ab99"><path d="M 12 15 L 24 15 L 24 26 L 12 26 Z M 12 15 " clip-rule="nonzero"/></clipPath><clipPath id="f75cf684c4"><path d="M 24.898438 18.640625 L 14.421875 26.726562 L 11.671875 23.164062 L 22.148438 15.078125 Z M 24.898438 18.640625 " clip-rule="nonzero"/></clipPath><clipPath id="5b6ca29fda"><path d="M 23.117188 20.015625 L 16.203125 25.351562 C 15.730469 25.714844 15.132812 25.878906 14.542969 25.800781 C 13.949219 25.726562 13.414062 25.417969 13.046875 24.945312 C 12.683594 24.472656 12.519531 23.875 12.597656 23.28125 C 12.671875 22.691406 12.980469 22.152344 13.453125 21.789062 L 20.367188 16.453125 C 20.839844 16.085938 21.4375 15.925781 22.03125 16 C 22.621094 16.078125 23.160156 16.386719 23.523438 16.859375 C 23.890625 17.332031 24.050781 17.929688 23.976562 18.519531 C 23.898438 19.113281 23.589844 19.648438 23.117188 20.015625 Z M 23.117188 20.015625 " clip-rule="nonzero"/></clipPath><clipPath id="80cb53949c"><path d="M 0.289062 0.792969 L 12 0.792969 L 12 11 L 0.289062 11 Z M 0.289062 0.792969 " clip-rule="nonzero"/></clipPath><clipPath id="998ad241a1"><path d="M 12.898438 3.640625 L 2.421875 11.726562 L -0.328125 8.164062 L 10.148438 0.078125 Z M 12.898438 3.640625 " clip-rule="nonzero"/></clipPath><clipPath id="003963899d"><path d="M 11.117188 5.015625 L 4.203125 10.351562 C 3.730469 10.714844 3.132812 10.878906 2.542969 10.800781 C 1.949219 10.726562 1.414062 10.417969 1.046875 9.945312 C 0.683594 9.472656 0.519531 8.875 0.597656 8.28125 C 0.671875 7.691406 0.980469 7.152344 1.453125 6.789062 L 8.367188 1.453125 C 8.839844 1.085938 9.4375 0.925781 10.03125 1 C 10.621094 1.078125 11.160156 1.386719 11.523438 1.859375 C 11.890625 2.332031 12.050781 2.929688 11.976562 3.519531 C 11.898438 4.113281 11.589844 4.648438 11.117188 5.015625 Z M 11.117188 5.015625 " clip-rule="nonzero"/></clipPath><clipPath id="5e901a1ee6"><rect x="0" width="12" y="0" height="11"/></clipPath><clipPath id="8278875b43"><path d="M 12.121094 13.207031 L 15.75 13.207031 L 15.75 27.953125 L 12.121094 27.953125 Z M 12.121094 13.207031 " clip-rule="nonzero"/></clipPath><clipPath id="333dd22b30"><path d="M 15.75 15.023438 L 15.75 26.128906 C 15.75 26.609375 15.558594 27.070312 15.21875 27.410156 C 14.878906 27.75 14.417969 27.941406 13.9375 27.941406 C 13.457031 27.941406 12.992188 27.75 12.652344 27.410156 C 12.3125 27.070312 12.121094 26.609375 12.121094 26.128906 L 12.121094 15.023438 C 12.121094 14.542969 12.3125 14.082031 12.652344 13.738281 C 12.992188 13.398438 13.457031 13.207031 13.9375 13.207031 C 14.417969 13.207031 14.878906 13.398438 15.21875 13.738281 C 15.558594 14.082031 15.75 14.542969 15.75 15.023438 Z M 15.75 15.023438 " clip-rule="nonzero"/></clipPath><clipPath id="0a5987882a"><path d="M 0.121094 0.207031 L 3.75 0.207031 L 3.75 14.953125 L 0.121094 14.953125 Z M 0.121094 0.207031 " clip-rule="nonzero"/></clipPath><clipPath id="25a1874808"><path d="M 3.75 2.023438 L 3.75 13.128906 C 3.75 13.609375 3.558594 14.070312 3.21875 14.410156 C 2.878906 14.75 2.417969 14.941406 1.9375 14.941406 C 1.457031 14.941406 0.992188 14.75 0.652344 14.410156 C 0.3125 14.070312 0.121094 13.609375 0.121094 13.128906 L 0.121094 2.023438 C 0.121094 1.542969 0.3125 1.082031 0.652344 0.738281 C 0.992188 0.398438 1.457031 0.207031 1.9375 0.207031 C 2.417969 0.207031 2.878906 0.398438 3.21875 0.738281 C 3.558594 1.082031 3.75 1.542969 3.75 2.023438 Z M 3.75 2.023438 " clip-rule="nonzero"/></clipPath><clipPath id="b84614e1bb"><rect x="0" width="4" y="0" height="15"/></clipPath></defs><g clip-path="url(#eb27ed1b7b)"><g clip-path="url(#ffd1990523)"><g transform="matrix(1, 0, 0, 1, 11, 2)"><g clip-path="url(#64241b9b32)"><g clip-path="url(#c5500c2740)"><g clip-path="url(#ccd8f01838)"><path fill="#ffffff" d="M 0.683594 0.175781 L 20.195312 0.175781 L 20.195312 4.675781 L 0.683594 4.675781 Z M 0.683594 0.175781 " fill-opacity="1" fill-rule="nonzero"/></g></g></g></g></g></g><g clip-path="url(#9179ea9b32)"><g clip-path="url(#ef5870b5b5)"><g clip-path="url(#e6960df5a5)"><g transform="matrix(1, 0, 0, 1, 18, 3)"><g clip-path="url(#1483140d36)"><g clip-path="url(#058864165c)"><g clip-path="url(#c7d9ab1f0e)"><g clip-path="url(#7dc6a5095d)"><path fill="#ffffff" d="M -0.402344 8.953125 L 11.3125 -0.0898438 L 14.0625 3.472656 L 2.34375 12.515625 Z M -0.402344 8.953125 " fill-opacity="1" fill-rule="nonzero"/></g></g></g></g></g></g></g></g><g clip-path="url(#540f563d86)"><g clip-path="url(#5ee3d82226)"><g transform="matrix(1, 0, 0, 1, 27, 2)"><g clip-path="url(#9fc1d46cfe)"><g clip-path="url(#444550e648)"><g clip-path="url(#03c85303bb)"><path fill="#ffffff" d="M 0.601562 14.910156 L 0.601562 0.179688 L 4.230469 0.179688 L 4.230469 14.910156 Z M 0.601562 14.910156 " fill-opacity="1" fill-rule="nonzero"/></g></g></g></g></g></g><g clip-path="url(#0f6bcf613c)"><g clip-path="url(#8c44099070)"><g transform="matrix(1, 0, 0, 1, 12, 23)"><g clip-path="url(#504da14fa2)"><g clip-path="url(#161c6020e0)"><g clip-path="url(#0a87fbfb35)"><path fill="#ffffff" d="M 18.304688 4.941406 L 0.464844 4.941406 L 0.464844 0.441406 L 18.304688 0.441406 Z M 18.304688 4.941406 " fill-opacity="1" fill-rule="nonzero"/></g></g></g></g></g></g><g clip-path="url(#7fd569ab99)"><g clip-path="url(#f75cf684c4)"><g clip-path="url(#5b6ca29fda)"><g transform="matrix(1, 0, 0, 1, 12, 15)"><g clip-path="url(#5e901a1ee6)"><g clip-path="url(#80cb53949c)"><g clip-path="url(#998ad241a1)"><g clip-path="url(#003963899d)"><path fill="#ffffff" d="M 12.898438 3.640625 L 2.421875 11.726562 L -0.328125 8.164062 L 10.148438 0.078125 Z M 12.898438 3.640625 " fill-opacity="1" fill-rule="nonzero"/></g></g></g></g></g></g></g></g><g clip-path="url(#8278875b43)"><g clip-path="url(#333dd22b30)"><g transform="matrix(1, 0, 0, 1, 12, 13)"><g clip-path="url(#b84614e1bb)"><g clip-path="url(#0a5987882a)"><g clip-path="url(#25a1874808)"><path fill="#ffffff" d="M 3.75 0.207031 L 3.75 14.9375 L 0.121094 14.9375 L 0.121094 0.207031 Z M 3.75 0.207031 " fill-opacity="1" fill-rule="nonzero"/></g></g></g></g></g></g></svg>